<svg id="Layer_3" enable-background="new 0 0 64 64" height="256" viewBox="0 0 64 64" width="256" fill="#ffffff" xmlns="http://www.w3.org/2000/svg"><g><path d="m59.294 15.423-3.294-1.757v-2.666c.552 0 1-.447 1-1v-3c0-1.103-.897-2-2-2h-6c-1.103 0-2 .897-2 2v1.866l-14.529-7.749c-.294-.156-.647-.156-.941 0l-14.53 7.749v-1.866c0-1.103-.897-2-2-2h-6c-1.103 0-2 .897-2 2v3c0 .553.448 1 1 1v2.666l-3.294 1.757v.001c-2.286 1.219-3.706 3.586-3.706 6.176v1.4c0 .352.184.677.485.857.302.181.676.19.985.025l2.53-1.348v39.466c0 .553.448 1 1 1h4 6 6 6 6 14 6 4c.552 0 1-.447 1-1v-39.466l2.529 1.349c.148.078.309.117.471.117.178 0 .356-.048.515-.143.301-.18.485-.505.485-.857v-1.4c0-2.59-1.42-4.957-3.706-6.177zm-10.294-8.423h6v2h-6zm5 4v1.599l-2.999-1.599zm-45-4h6v2h-6zm1 4h2.999l-2.999 1.599zm38 44c-.552 0-1 .447-1 1v5h-12v-5c0-.553-.448-1-1-1h-5v-5c0-.553-.448-1-1-1h-5v-5c0-.553-.448-1-1-1h-6-5v-3h42v15zm-25 0v-4h1v2h2v-2h1v4zm-6 0v-4h1v2h2v-2h1v4zm-6 0v-4h1v2h2v-2h1v4zm3-8v-2h1v4h-4v-4h1v2zm3-2h1v2h2v-2h1v4h-4zm-6-11h42v1h-42zm0 3h42v1h-42zm42-5h-42v-1h42zm0-6h-42v-1c0-.552.449-1 1-1h40c.551 0 1 .448 1 1zm0 2v1h-42v-1zm-42 29h1v2h2v-2h1v4h-4zm6 0h1v2h2v-2h1v4h-4zm6 0h1v2h2v-2h1v4h-4zm6 4v-4h1v2h2v-2h1v4zm20-4h1v2h2v-2h1v4h-4zm8 4h-2v-5-29-2c0-1.654-1.346-3-3-3h-40c-1.654 0-3 1.346-3 3v2 17 6 6 5h-2v-39.533l2.751-1.467h44.498l2.751 1.467zm-19-43h-12v-2.382l3.236-1.618h5.528l3.236 1.618zm1.447-3.895-4-2c-.138-.069-.292-.105-.447-.105h-6c-.155 0-.309.036-.447.105l-4 2c-.339.17-.553.516-.553.895v3h-10.499l18.499-9.866 18.499 9.866h-10.499v-3c0-.379-.214-.725-.553-.895zm-6.976-7.988c-.147-.078-.309-.117-.471-.117s-.324.039-.471.117l-28.522 15.212c.093-1.743 1.087-3.312 2.64-4.142v.001l26.353-14.054 26.353 14.054c1.553.829 2.546 2.398 2.64 4.142z"/><path d="m29 15h6v2h-6z"/></g></svg>