<?xml version="1.0" encoding="iso-8859-1"?>
<!-- Generator: Adobe Illustrator 16.0.0, SVG Export Plug-In . SVG Version: 6.00 Build 0)  -->
<!DOCTYPE svg PUBLIC "-//W3C//DTD SVG 1.1//EN" "http://www.w3.org/Graphics/SVG/1.1/DTD/svg11.dtd">
<svg version="1.1" id="Capa_1" xmlns="http://www.w3.org/2000/svg" xmlns:xlink="http://www.w3.org/1999/xlink" height="256" width="256" fill="#ffffff" viewBox="0 0 540.587 540.587" style="enable-background:new 0 0 540.587 540.587;"
	 xml:space="preserve">
<g>
	<g>
		<path d="M120,503.896c0,20.225,16.457,36.69,36.682,36.69h227.225c20.225,0,36.682-16.466,36.682-36.69V36.682
			C420.587,16.457,404.13,0,383.906,0H156.681C136.457,0,120,16.457,120,36.682V503.896z M134.343,36.682
			c0-12.307,10.021-22.338,22.338-22.338h227.225c12.316,0,22.338,10.031,22.338,22.338v467.215
			c0,12.326-10.021,22.348-22.338,22.348H156.681c-12.316,0-22.338-10.021-22.338-22.348V36.682z"/>
		<path d="M152.12,476.997h236.346c1.98,0,3.586-1.606,3.586-3.586V63.237c0-1.979-1.605-3.586-3.586-3.586H152.12
			c-1.979,0-3.586,1.606-3.586,3.586v410.174C148.534,475.391,150.141,476.997,152.12,476.997z M165.269,66.823h210.049
			c5.279,0,9.562,4.284,9.562,9.562v383.877c0,5.278-4.283,9.562-9.562,9.562H165.269c-5.279,0-9.562-4.284-9.562-9.562V76.385
			C155.706,71.107,159.99,66.823,165.269,66.823z"/>
		<path d="M250.126,37.81h40.334c1.98,0,3.586-1.606,3.586-3.586c0-1.979-1.605-3.586-3.586-3.586h-40.334
			c-1.979,0-3.586,1.607-3.586,3.586C246.54,36.204,248.146,37.81,250.126,37.81z"/>
		<path d="M290.949,485.191h-41.311c-8.482,0-15.386,6.904-15.386,15.377v2.467c0,8.482,6.904,15.387,15.386,15.387h41.311
			c8.482,0,15.385-6.914,15.385-15.387v-2.467C306.343,492.096,299.431,485.191,290.949,485.191z M299.171,503.035
			c0,4.533-3.689,8.215-8.213,8.215h-41.311c-4.533,0-8.214-3.691-8.214-8.215v-2.467c0-4.523,3.691-8.205,8.214-8.205h41.311
			c4.531,0,8.213,3.691,8.213,8.205V503.035z"/>
		<path d="M319.177,193.88c-7.373,0-13.416,0.411-17.203,0.746c-1.75,0.163-3.156,1.014-3.854,2.362
			c-0.699,1.348-0.584,3.021,0.314,4.58c0,0,1.617,2.792,3.615,6.235s-0.67,6.235-5.947,6.235h-93.474
			c-9.017,0-16.371,7.344-16.371,16.361v60.884c0,16.62,13.521,30.15,30.15,30.15h101.649c16.629,0,30.15-13.53,30.15-30.15V254.63
			c0-5.278-0.258-9.056-0.584-8.434c-0.334,0.622,1.369-2.678,3.625-7.449c6.855-14.458,11.379-26.603,13.33-32.168
			c0.564-1.578,0.43-3.318-0.344-4.781c-0.775-1.463-2.086-2.515-3.701-2.945C348.265,195.543,334.343,193.88,319.177,193.88z
			 M299.105,219.201c5.279,0,9.697,0.239,9.869,0.536s-3.635,2.257-8.07,5.125c-14.211,9.18-24.395,23.141-30.505,33.383
			c-2.706,4.533-5.307,8.329-6.148,8.08c-0.535-0.153-1.023-0.373-1.435-0.66l-56.82-40.01c-4.322-3.041-6.875-5.948-5.632-6.206
			c0.736-0.153,1.501-0.239,2.286-0.239h96.457V219.201z M191.422,230.39c0-1.291,0.229-2.525,0.641-3.672
			c0.708-1.941,5.326-0.784,9.648,2.257l34.616,24.375c4.313,3.041,4.906,8.645,1.32,12.527L204.771,301.4
			c-3.586,3.873-9.629,3.949-11.58-0.898c-1.147-2.859-1.779-5.968-1.779-9.229V230.39H191.422z M216.409,316.251
			c-2.591,0-5.097-0.401-7.449-1.138c-3.978-1.253-3.844-6.455-0.258-10.327l33.22-35.898c3.586-3.873,9.046-5.221,12.202-3.002
			l5.699,4.016c1.951,1.358,4.485,2.123,7.153,2.123c2.648,0,5.172-0.755,7.104-2.113c0,0,2.859-1.998,6.379-4.456
			c3.52-2.458,9.285-1.31,12.871,2.562l33.373,36.07c3.586,3.872,3.596,9.39-0.66,10.844c-2.506,0.851-5.191,1.319-7.984,1.319
			H216.409L216.409,316.251z M274.242,265.522C276.863,263.323,276.863,263.323,274.242,265.522
			C271.632,267.731,271.623,267.722,274.242,265.522z M343.035,264.527v26.746c0,3.051-0.555,5.977-1.568,8.692
			c-1.721,4.591-7.42,4.456-11.006,0.584l-32.857-35.516c-3.586-3.873-2.982-9.467,1.35-12.498l3.059-2.132
			c4.332-3.022,11.15-6.761,15.33-8.071c4.178-1.31,9.867,1.444,12.621,5.843l4.992,7.956c0.898,1.434,2.268,2.257,3.74,2.257
			c1.529,0,2.953-0.918,3.795-2.458c0.594-1.071,1.158-2.132,1.721-3.194c0.938-1.769,1.062-1.989,0.277-0.478
			C343.695,253.75,343.035,259.249,343.035,264.527z M337.824,254.315l-6.158-9.811c-2.811-4.476-5.346-8.052-5.66-7.985
			l-0.574,0.115c-0.277,0.057-24.49,4.973-46.771,21.085c-4.273,3.098-5.439,2.161-2.562-2.267
			c7.756-11.905,19.805-26.02,36.242-32.818c0,0,0.402-0.163,0.889-0.373c0.488-0.21-1.252-4.074-3.9-8.645l-7.975-13.76
			c-0.307-0.517-0.402-1.023-0.24-1.32c0.154-0.287,0.574-0.488,1.148-0.535c3.719-0.344,9.668-0.736,16.896-0.736
			c14.879,0,28.486,1.625,40.488,4.838c0.688,0.182,1.252,0.631,1.586,1.253c0.346,0.641,0.383,1.377,0.135,2.075
			c-2.668,7.593-10.146,27.55-21.879,48.845C339,255.233,338.388,255.214,337.824,254.315z"/>
	</g>
</g>
<g>
</g>
<g>
</g>
<g>
</g>
<g>
</g>
<g>
</g>
<g>
</g>
<g>
</g>
<g>
</g>
<g>
</g>
<g>
</g>
<g>
</g>
<g>
</g>
<g>
</g>
<g>
</g>
<g>
</g>
</svg>
