<svg id="Capa_1" enable-background="new 0 0 512 512" width="32" height="32" fill="#ffffff" viewBox="0 0 512 512"  xmlns="http://www.w3.org/2000/svg"><g><path d="m346 136c0-24.813-20.187-45-45-45h-45v105c0 8.271-6.729 15-15 15-14.122 0-116.354 0-135 0v180h120v-30h8.787l30 30h138.51l36-180h-93.297zm-150 225h-60v-120h60zm206.703-120-24 120h-101.49l-30-30h-21.213v-90h15c24.813 0 45-20.187 45-45v-75h15c8.271 0 15 6.729 15 15v105z"/><path d="m256 0c-140.959 0-256 115.049-256 256 0 140.959 115.049 256 256 256 140.959 0 256-115.05 256-256 0-140.959-115.05-256-256-256zm0 482c-124.617 0-226-101.383-226-226s101.383-226 226-226 226 101.383 226 226-101.383 226-226 226z"/></g></svg>